<svg width="24" height="24" viewBox="0 0 24 24" fill="none" xmlns="http://www.w3.org/2000/svg">
<path d="M21.3684 11.1053L14.2105 5.73684C13.5728 5.25855 12.7972 5 12 5C11.2028 5 10.4272 5.25855 9.78947 5.73684L2.63158 11.1053C2.4657 11.2297 2.32595 11.3855 2.2203 11.564C2.11466 11.7424 2.04519 11.9399 2.01587 12.1451C1.98655 12.3504 1.99794 12.5594 2.0494 12.7603C2.10086 12.9611 2.19138 13.1499 2.31579 13.3158C2.4402 13.4817 2.59606 13.6214 2.77448 13.7271C2.9529 13.8327 3.15038 13.9022 3.35565 13.9315C3.56092 13.9608 3.76995 13.9494 3.97081 13.898C4.17167 13.8465 4.36044 13.756 4.52632 13.6316L11.6842 8.26316C11.7753 8.19483 11.8861 8.15789 12 8.15789C12.1139 8.15789 12.2247 8.19483 12.3158 8.26316L19.4737 13.6316C19.6396 13.756 19.8283 13.8465 20.0292 13.898C20.2301 13.9494 20.4391 13.9608 20.6444 13.9315C20.8496 13.9022 21.0471 13.8327 21.2255 13.7271C21.4039 13.6214 21.5598 13.4817 21.6842 13.3158C21.8086 13.1499 21.8991 12.9611 21.9506 12.7603C22.0021 12.5594 22.0135 12.3504 21.9841 12.1451C21.9548 11.9399 21.8853 11.7424 21.7797 11.564C21.6741 11.3855 21.5343 11.2297 21.3684 11.1053Z" fill="white"/>
<path d="M17.1583 16.3682L12.9478 13.2103C12.6745 13.0053 12.3421 12.8945 12.0004 12.8945C11.6588 12.8945 11.3264 13.0053 11.0531 13.2103L6.84252 16.3682C6.50751 16.6195 6.28604 16.9935 6.22681 17.4081C6.16759 17.8226 6.27548 18.2437 6.52673 18.5787C6.77799 18.9138 7.15204 19.1352 7.5666 19.1945C7.98115 19.2537 8.40225 19.1458 8.73726 18.8945L12.0004 16.4482L15.2636 18.8945C15.5986 19.1458 16.0197 19.2537 16.4342 19.1945C16.8488 19.1352 17.2228 18.9138 17.4741 18.5787C17.7254 18.2437 17.8332 17.8226 17.774 17.4081C17.7148 16.9935 17.4933 16.6195 17.1583 16.3682Z" fill="white"/>
</svg>
