<?xml version="1.0" encoding="utf-8"?>
<!-- Generator: Adobe Illustrator 25.0.1, SVG Export Plug-In . SVG Version: 6.00 Build 0)  -->
<svg version="1.0" id="Layer_1" xmlns="http://www.w3.org/2000/svg" xmlns:xlink="http://www.w3.org/1999/xlink" x="0px" y="0px"
	 viewBox="0 0 886 608" style="enable-background:new 0 0 886 608;" xml:space="preserve">
<style type="text/css">
	.st0{fill:#EBEBEB;}
	.st1{fill:#FFFFFF;}
</style>
<g>
	<g>
		<polygon points="294.6,518.9 261.6,148.6 624.4,148.6 591.3,518.8 442.8,560 		"/>
		<polygon points="443,528.5 563,495.2 591.3,178.9 443,178.9 		"/>
		<g>
			<polygon class="st0" points="443,316.2 382.9,316.2 378.8,269.7 443,269.7 443,224.3 442.8,224.3 329.1,224.3 330.2,236.5 
				341.4,361.6 443,361.6 			"/>
			<polygon class="st0" points="443,434.2 442.8,434.2 392.2,420.5 389,384.3 364.4,384.3 343.4,384.3 349.8,455.6 442.8,481.5 
				443,481.4 			"/>
		</g>
		<g>
			<path d="M295.4,48h23.1v22.8h21.1V48h23.1v69h-23.1V93.9h-21.1V117h-23.1L295.4,48L295.4,48z"/>
			<path d="M393,70.9h-20.3V48h63.7v22.9h-20.3V117H393L393,70.9L393,70.9z"/>
			<path d="M446.5,48h24.1l14.8,24.3L500.2,48h24.1v69h-23V82.8l-15.9,24.5H485l-15.9-24.5V117h-22.6V48z"/>
			<path d="M535.7,48h23.1v46.2h32.5V117h-55.5V48z"/>
		</g>
		<g>
			<polygon class="st1" points="442.8,316.2 442.8,361.6 498.8,361.6 493.5,420.5 442.8,434.2 442.8,481.4 535.9,455.6 536.6,448 
				547.3,328.4 548.4,316.2 536.2,316.2 			"/>
			<polygon class="st1" points="442.8,224.3 442.8,252.5 442.8,269.6 442.8,269.7 552.4,269.7 552.4,269.7 552.5,269.7 553.4,259.5 
				555.5,236.5 556.6,224.3 			"/>
		</g>
	</g>
</g>
</svg>
