<svg width="214" height="130" viewBox="0 0 214 130" fill="none" xmlns="http://www.w3.org/2000/svg">
<path d="M103.659 55.78L100.315 66H97.7748L95.5264 59.0796L93.205 66H90.6792L87.3212 55.78H89.774L92.0808 62.9632L94.4898 55.78H96.6798L99.0158 63.0216L101.396 55.78H103.659ZM113.856 64.102V66H105.943V55.78H113.666V57.678H108.293V59.8972H113.038V61.7368H108.293V64.102H113.856ZM124.206 60.6856C124.79 60.8705 125.247 61.182 125.578 61.62C125.909 62.0483 126.075 62.5787 126.075 63.2114C126.075 64.1069 125.724 64.7979 125.023 65.2846C124.332 65.7615 123.32 66 121.987 66H116.701V55.78H121.695C122.94 55.78 123.894 56.0185 124.556 56.4954C125.228 56.9723 125.564 57.6196 125.564 58.4372C125.564 58.9336 125.442 59.3765 125.199 59.7658C124.965 60.1551 124.634 60.4617 124.206 60.6856ZM119.052 57.5612V59.9702H121.403C121.987 59.9702 122.429 59.868 122.731 59.6636C123.033 59.4592 123.184 59.1575 123.184 58.7584C123.184 58.3593 123.033 58.0625 122.731 57.8678C122.429 57.6634 121.987 57.5612 121.403 57.5612H119.052ZM121.811 64.2188C122.434 64.2188 122.901 64.1166 123.213 63.9122C123.534 63.7078 123.695 63.3915 123.695 62.9632C123.695 62.1164 123.067 61.693 121.811 61.693H119.052V64.2188H121.811Z" fill="#CFD0D1"/>
<path d="M107.531 69.52H109.566C110.053 69.52 110.482 69.6139 110.853 69.8016C111.228 69.9851 111.518 70.2453 111.723 70.5824C111.932 70.9195 112.037 71.312 112.037 71.76C112.037 72.208 111.932 72.6005 111.723 72.9376C111.518 73.2747 111.228 73.5371 110.853 73.7248C110.482 73.9083 110.053 74 109.566 74H107.531V69.52ZM109.515 73.1488C109.963 73.1488 110.319 73.0251 110.584 72.7776C110.853 72.5259 110.987 72.1867 110.987 71.76C110.987 71.3333 110.853 70.9963 110.584 70.7488C110.319 70.4971 109.963 70.3712 109.515 70.3712H108.568V73.1488H109.515ZM117.99 73.168V74H114.521V69.52H117.907V70.352H115.552V71.3248H117.632V72.1312H115.552V73.168H117.99ZM124.762 69.52L122.823 74H121.799L119.866 69.52H120.986L122.349 72.72L123.732 69.52H124.762ZM130.307 73.168V74H126.838V69.52H130.224V70.352H127.869V71.3248H129.949V72.1312H127.869V73.168H130.307ZM132.835 69.52H133.871V73.1552H136.118V74H132.835V69.52ZM140.494 74.0768C140.029 74.0768 139.609 73.9765 139.233 73.776C138.862 73.5755 138.57 73.3003 138.356 72.9504C138.147 72.5963 138.043 72.1995 138.043 71.76C138.043 71.3205 138.147 70.9259 138.356 70.576C138.57 70.2219 138.862 69.9445 139.233 69.744C139.609 69.5435 140.029 69.4432 140.494 69.4432C140.959 69.4432 141.377 69.5435 141.748 69.744C142.12 69.9445 142.412 70.2219 142.625 70.576C142.839 70.9259 142.945 71.3205 142.945 71.76C142.945 72.1995 142.839 72.5963 142.625 72.9504C142.412 73.3003 142.12 73.5755 141.748 73.776C141.377 73.9765 140.959 74.0768 140.494 74.0768ZM140.494 73.1936C140.759 73.1936 140.998 73.1339 141.211 73.0144C141.424 72.8907 141.591 72.72 141.71 72.5024C141.834 72.2848 141.896 72.0373 141.896 71.76C141.896 71.4827 141.834 71.2352 141.71 71.0176C141.591 70.8 141.424 70.6315 141.211 70.512C140.998 70.3883 140.759 70.3264 140.494 70.3264C140.23 70.3264 139.991 70.3883 139.777 70.512C139.564 70.6315 139.395 70.8 139.272 71.0176C139.152 71.2352 139.092 71.4827 139.092 71.76C139.092 72.0373 139.152 72.2848 139.272 72.5024C139.395 72.72 139.564 72.8907 139.777 73.0144C139.991 73.1339 140.23 73.1936 140.494 73.1936ZM147.366 69.52C147.763 69.52 148.106 69.5861 148.396 69.7184C148.691 69.8507 148.917 70.0384 149.075 70.2816C149.233 70.5248 149.312 70.8128 149.312 71.1456C149.312 71.4741 149.233 71.7621 149.075 72.0096C148.917 72.2528 148.691 72.4405 148.396 72.5728C148.106 72.7008 147.763 72.7648 147.366 72.7648H146.464V74H145.427V69.52H147.366ZM147.308 71.92C147.62 71.92 147.857 71.8539 148.019 71.7216C148.181 71.5851 148.262 71.3931 148.262 71.1456C148.262 70.8939 148.181 70.7019 148.019 70.5696C147.857 70.4331 147.62 70.3648 147.308 70.3648H146.464V71.92H147.308ZM155.831 74L155.825 71.312L154.506 73.5264H154.039L152.727 71.3696V74H151.754V69.52H152.612L154.289 72.304L155.94 69.52H156.791L156.804 74H155.831ZM163.038 73.168V74H159.569V69.52H162.955V70.352H160.6V71.3248H162.68V72.1312H160.6V73.168H163.038ZM169.674 69.52V74H168.823L166.589 71.28V74H165.565V69.52H166.423L168.65 72.24V69.52H169.674ZM173.364 70.3648H171.931V69.52H175.835V70.3648H174.401V74H173.364V70.3648Z" fill="white"/>
<mask id="mask0_69_75" style="mask-type:alpha" maskUnits="userSpaceOnUse" x="3" y="2" width="206" height="125">
<path d="M74.84 60.57H107.65V104.77C102.21 111.23 95.6367 116.5 87.93 120.58C80.2233 124.66 71.8367 126.7 62.77 126.7C54.61 126.7 46.9033 125.057 39.65 121.77C32.3967 118.483 26.1067 114.063 20.78 108.51C15.4533 102.843 11.2033 96.27 8.03 88.79C4.97 81.31 3.44 73.32 3.44 64.82C3.44 56.4333 4.97 48.5 8.03 41.02C11.2033 33.4267 15.4533 26.8533 20.78 21.3C26.1067 15.6333 32.3967 11.1567 39.65 7.87C46.9033 4.58333 54.61 2.93999 62.77 2.93999C70.25 2.93999 77.3333 4.41333 84.02 7.35999C90.7067 10.3067 96.7133 14.16 102.04 18.92L91.5 32.35C87.76 28.3833 83.3967 25.21 78.41 22.83C73.5367 20.3367 68.3233 19.09 62.77 19.09C56.99 19.09 51.55 20.3367 46.45 22.83C41.4633 25.21 37.1 28.4967 33.36 32.69C29.62 36.8833 26.6733 41.7567 24.52 47.31C22.3667 52.75 21.29 58.5867 21.29 64.82C21.29 71.0533 22.3667 76.9467 24.52 82.5C26.6733 87.94 29.62 92.7567 33.36 96.95C37.1 101.03 41.4633 104.26 46.45 106.64C51.55 109.02 56.99 110.21 62.77 110.21C68.0967 110.21 73.0833 109.19 77.73 107.15C82.3767 104.997 86.5133 102.163 90.14 98.65V77.06H74.84V60.57ZM208.793 91.34C208.793 95.9867 207.887 100.35 206.073 104.43C204.373 108.51 201.993 112.08 198.933 115.14C195.873 118.2 192.247 120.637 188.053 122.45C183.973 124.15 179.61 125 174.963 125H123.453V4.46999H170.543C174.623 4.46999 178.477 5.26332 182.103 6.84999C185.73 8.43666 188.903 10.59 191.623 13.31C194.343 16.03 196.497 19.26 198.083 23C199.67 26.6267 200.463 30.5367 200.463 34.73C200.463 39.9433 199.613 44.7033 197.913 49.01C196.213 53.2033 193.437 56.7733 189.583 59.72C196.043 62.1 200.86 66.18 204.033 71.96C207.207 77.6267 208.793 84.0867 208.793 91.34ZM141.133 53.26C145.667 53.3733 149.86 53.43 153.713 53.43H170.713C175.02 53.43 178.647 51.8433 181.593 48.67C184.54 45.3833 186.013 41.4733 186.013 36.94C186.013 32.2933 184.54 28.3833 181.593 25.21C178.647 22.0367 175.02 20.45 170.713 20.45H141.133V53.26ZM141.133 108.51C141.927 108.623 143.683 108.68 146.403 108.68H174.963C177.343 108.68 179.553 108.17 181.593 107.15C183.747 106.13 185.617 104.77 187.203 103.07C188.79 101.257 190.037 99.16 190.943 96.78C191.85 94.4 192.303 91.85 192.303 89.13C192.303 86.41 191.85 83.9167 190.943 81.65C190.037 79.27 188.79 77.23 187.203 75.53C185.617 73.7167 183.747 72.3 181.593 71.28C179.553 70.26 177.343 69.75 174.963 69.75H141.133V108.51Z" fill="#E31E24"/>
</mask>
<g mask="url(#mask0_69_75)">
<rect width="210" height="51" fill="#E31E24"/>
</g>
<mask id="mask1_69_75" style="mask-type:alpha" maskUnits="userSpaceOnUse" x="3" y="2" width="206" height="125">
<path d="M74.84 60.57H107.65V104.77C102.21 111.23 95.6367 116.5 87.93 120.58C80.2233 124.66 71.8367 126.7 62.77 126.7C54.61 126.7 46.9033 125.057 39.65 121.77C32.3967 118.483 26.1067 114.063 20.78 108.51C15.4533 102.843 11.2033 96.27 8.03 88.79C4.97 81.31 3.44 73.32 3.44 64.82C3.44 56.4333 4.97 48.5 8.03 41.02C11.2033 33.4267 15.4533 26.8533 20.78 21.3C26.1067 15.6333 32.3967 11.1567 39.65 7.87C46.9033 4.58333 54.61 2.93999 62.77 2.93999C70.25 2.93999 77.3333 4.41333 84.02 7.35999C90.7067 10.3067 96.7133 14.16 102.04 18.92L91.5 32.35C87.76 28.3833 83.3967 25.21 78.41 22.83C73.5367 20.3367 68.3233 19.09 62.77 19.09C56.99 19.09 51.55 20.3367 46.45 22.83C41.4633 25.21 37.1 28.4967 33.36 32.69C29.62 36.8833 26.6733 41.7567 24.52 47.31C22.3667 52.75 21.29 58.5867 21.29 64.82C21.29 71.0533 22.3667 76.9467 24.52 82.5C26.6733 87.94 29.62 92.7567 33.36 96.95C37.1 101.03 41.4633 104.26 46.45 106.64C51.55 109.02 56.99 110.21 62.77 110.21C68.0967 110.21 73.0833 109.19 77.73 107.15C82.3767 104.997 86.5133 102.163 90.14 98.65V77.06H74.84V60.57ZM208.793 91.34C208.793 95.9867 207.887 100.35 206.073 104.43C204.373 108.51 201.993 112.08 198.933 115.14C195.873 118.2 192.247 120.637 188.053 122.45C183.973 124.15 179.61 125 174.963 125H123.453V4.46999H170.543C174.623 4.46999 178.477 5.26332 182.103 6.84999C185.73 8.43666 188.903 10.59 191.623 13.31C194.343 16.03 196.497 19.26 198.083 23C199.67 26.6267 200.463 30.5367 200.463 34.73C200.463 39.9433 199.613 44.7033 197.913 49.01C196.213 53.2033 193.437 56.7733 189.583 59.72C196.043 62.1 200.86 66.18 204.033 71.96C207.207 77.6267 208.793 84.0867 208.793 91.34ZM141.133 53.26C145.667 53.3733 149.86 53.43 153.713 53.43H170.713C175.02 53.43 178.647 51.8433 181.593 48.67C184.54 45.3833 186.013 41.4733 186.013 36.94C186.013 32.2933 184.54 28.3833 181.593 25.21C178.647 22.0367 175.02 20.45 170.713 20.45H141.133V53.26ZM141.133 108.51C141.927 108.623 143.683 108.68 146.403 108.68H174.963C177.343 108.68 179.553 108.17 181.593 107.15C183.747 106.13 185.617 104.77 187.203 103.07C188.79 101.257 190.037 99.16 190.943 96.78C191.85 94.4 192.303 91.85 192.303 89.13C192.303 86.41 191.85 83.9167 190.943 81.65C190.037 79.27 188.79 77.23 187.203 75.53C185.617 73.7167 183.747 72.3 181.593 71.28C179.553 70.26 177.343 69.75 174.963 69.75H141.133V108.51Z" fill="#E31E24"/>
</mask>
<g mask="url(#mask1_69_75)">
<rect x="2" y="80" width="208" height="47" fill="#E31E24"/>
</g>
</svg>
